<?xml version="1.0" standalone="no"?>
<!DOCTYPE svg PUBLIC "-//W3C//DTD SVG 1.1//EN" "http://www.w3.org/Graphics/SVG/1.1/DTD/svg11.dtd" >
<svg xmlns="http://www.w3.org/2000/svg">
<metadata></metadata>
<defs>
<font id="kitchen_policeregular" horiz-adv-x="1433" >
<font-face units-per-em="2048" ascent="1638" descent="-410" />
<missing-glyph horiz-adv-x="1024" />
<glyph horiz-adv-x="0" />
<glyph unicode="&#xd;" horiz-adv-x="1024" />
<glyph unicode=" "  horiz-adv-x="1024" />
<glyph unicode="&#x09;" horiz-adv-x="1024" />
<glyph unicode="&#xa0;" horiz-adv-x="1024" />
<glyph unicode="!" horiz-adv-x="565" d="M-98 -92l55 393h391l-55 -393h-391zM-23 459l123 866h394l-123 -866h-394z" />
<glyph unicode="&#x22;" horiz-adv-x="952" d="M-33 852l66 473h315l-57 -412zM438 852l66 473h315l-57 -412z" />
<glyph unicode="#" horiz-adv-x="1261" d="M-66 143l43 316h158l45 315h-157l45 316h155l33 235h315l-32 -235h157l33 235h315l-32 -235h155l-43 -316h-157l-43 -315h155l-43 -316h-157l-33 -235h-316l33 235h-157l-33 -235h-316l33 235h-156zM451 459h157l43 315h-155z" />
<glyph unicode="$" horiz-adv-x="1097" d="M-78 66l45 313h629l10 80h-629l101 708h313l23 158h315l-22 -158h315l-45 -315h-629l-10 -78h629l-101 -708h-313l-23 -158h-315l23 158h-316z" />
<glyph unicode="%" horiz-adv-x="1179" d="M0 932h393v393h-393v-393zM213 -92l287 1417h313l-287 -1417h-313zM655 -92h394v393h-394v-393z" />
<glyph unicode="&#x26;" horiz-adv-x="1400" d="M-98 -92l198 1417h1102l-78 -551h-393l55 393h-315l-65 -471h864l-23 -157h-155l-88 -631h-1102zM317 66h314l65 471h-313z" />
<glyph unicode="'" horiz-adv-x="485" d="M-33 852l66 473h315l-67 -473h-314z" />
<glyph unicode="(" horiz-adv-x="587" d="M-143 -408l286 2046h631l-22 -155h-236l-244 -1731h236l-23 -160h-628z" />
<glyph unicode=")" horiz-adv-x="802" d="M-143 -408h628l289 2046h-631l-20 -155h235l-243 -1731h-236z" />
<glyph unicode="*" horiz-adv-x="743" d="M23 1223l122 108l-92 109l191 168l92 -109l125 109l143 -168l-123 -109l92 -108l-190 -166l-92 108l-125 -110z" />
<glyph unicode="+" horiz-adv-x="849" d="M-16 537l32 237h236l35 236h235l-33 -236h236l-33 -237h-235l-35 -236h-236l33 236h-235z" />
<glyph unicode="," horiz-adv-x="565" d="M-55 -408l110 787h394l-111 -787h-393z" />
<glyph unicode="-" horiz-adv-x="1032" d="M-16 539l32 235h867l-33 -235h-866z" />
<glyph unicode="." horiz-adv-x="587" d="M-27 -92l56 393h391l-53 -393h-394z" />
<glyph unicode="/" horiz-adv-x="1138" d="M0 -406l614 2046h465l-614 -2046h-465z" />
<glyph unicode="0" d="M-98 -92l198 1417h1258l-199 -1417h-1257zM395 66h314l155 1101h-313z" />
<glyph unicode="1" horiz-adv-x="804" d="M57 -92l179 1259h-158l22 158h629l-199 -1417h-473z" />
<glyph unicode="2" horiz-adv-x="1431" d="M-98 -92l110 786h785l67 473h-313l-55 -393h-473l77 551h1258l-111 -786h-784l-68 -473h314l55 393h473l-78 -551h-1257z" />
<glyph unicode="3" d="M-98 -92l75 551h474l-56 -393h314l67 471h-315l22 157h316l65 473h-313l-55 -393h-473l77 551h1258l-199 -1417h-1257z" />
<glyph unicode="4" horiz-adv-x="1488" d="M-10 537l110 788h471l-88 -629h236l88 629h553l-88 -629h78l-23 -159h-78l-88 -629h-553l88 629h-706z" />
<glyph unicode="5" horiz-adv-x="1429" d="M-98 -92l75 551h474l-56 -393h316l65 471h-786l110 788h1258l-76 -551h-473l55 393h-315l-66 -471h787l-111 -788h-1257z" />
<glyph unicode="6" horiz-adv-x="1429" d="M-98 -92l198 1417h1258l-76 -551h-473l55 393h-313l-68 -471h787l-111 -788h-1257zM395 66h314l67 471h-315z" />
<glyph unicode="7" horiz-adv-x="1388" d="M23 774l77 551h1258v-14l-649 -1403h-494l582 1259h-246l-55 -393h-473z" />
<glyph unicode="8" d="M-98 -92l198 1417h1258l-199 -1417h-1257zM395 66h314l67 471h-315zM483 696h316l65 471h-313z" />
<glyph unicode="9" d="M-98 -92l75 551h474l-56 -393h314l67 471h-786l110 788h1258l-199 -1417h-1257zM483 696h316l65 471h-313z" />
<glyph unicode=":" horiz-adv-x="559" d="M-72 -92l56 393h393l-55 -393h-394zM16 539l56 393h393l-55 -393h-394z" />
<glyph unicode=";" horiz-adv-x="561" d="M-94 -408l110 787h394l-111 -787h-393zM39 539l55 393h393l-55 -393h-393z" />
<glyph unicode="&#x3c;" horiz-adv-x="880" d="M66 541l22 155l719 629l-76 -537q0 -6 -184 -167q29 -37 137 -166l-76 -541z" />
<glyph unicode="=" horiz-adv-x="1005" d="M-43 381l33 235h864l-33 -235h-864zM12 774l33 236h864l-32 -236h-865z" />
<glyph unicode="&#x3e;" horiz-adv-x="823" d="M-23 -86l719 627l23 155q-229 264 -543 629l-76 -537q-2 -6 140 -167q-41 -37 -187 -166z" />
<glyph unicode="?" horiz-adv-x="1312" d="M23 774l77 551h1180l-111 -786h-471l-22 -158h-393l43 313h473l65 473h-393l-55 -393h-393zM215 -92l55 393h394l-56 -393h-393z" />
<glyph unicode="@" horiz-adv-x="1896" d="M-98 -92l198 1417h1731l-156 -1102h-1257l110 787h787l-101 -709h158l123 866h-1102l-155 -1101h1417l-23 -158h-1730zM743 301h156l90 631h-158z" />
<glyph unicode="A" d="M-98 -92l153 1102h709l-23 -158h-235l-111 -786h314l155 1101h-786l22 158h1258l-199 -1417h-1257z" />
<glyph unicode="B" d="M-121 -92l244 1730h471l-221 -1572h315l154 1101h-236l23 158h708l-200 -1417h-1258z" />
<glyph unicode="C" horiz-adv-x="1425" d="M-98 -92l198 1417h1258l-76 -551h-473l55 393h-313l-156 -1101h314l55 393h473l-78 -551h-1257z" />
<glyph unicode="D" d="M-121 -92l199 1417h708l-22 -158h-236l-155 -1101h315l221 1572h471l-243 -1730h-1258z" />
<glyph unicode="E" horiz-adv-x="1427" d="M-98 -92l198 1417h1258l-154 -1102h-708l22 156h236l110 788h-313l-156 -1101h787l-23 -158h-1257z" />
<glyph unicode="F" horiz-adv-x="937" d="M37 -92l176 1259h-158l23 158h158l43 313h786l-21 -155h-315l-20 -158h155l-22 -158h-156l-178 -1259h-471z" />
<glyph unicode="G" d="M-121 -408l23 158h786l199 1417h-316l-153 -1101h235l-22 -158h-709l201 1417h1257l-243 -1733h-1258z" />
<glyph unicode="H" d="M-121 -92l244 1730h471l-43 -313h786l-200 -1417h-471l178 1259h-316l-178 -1259h-471z" />
<glyph unicode="I" horiz-adv-x="647" d="M-121 -92l199 1417h471l-199 -1417h-471zM88 1405l35 233h471l-33 -233h-473z" />
<glyph unicode="J" horiz-adv-x="645" d="M-143 -408l243 1733h471l-243 -1733h-471zM111 1405l32 233h473l-34 -233h-471z" />
<glyph unicode="K" horiz-adv-x="1417" d="M-121 -92l244 1730h471l-45 -313h788l-22 -158l-299 -2l121 -1257h-484l-125 1259l-176 -1259h-473z" />
<glyph unicode="L" horiz-adv-x="647" d="M-121 -92l244 1730h471l-244 -1730h-471z" />
<glyph unicode="M" horiz-adv-x="2220" d="M-98 -92l198 1417h2046l-198 -1417h-473l178 1259h-316l-176 -1259h-473l176 1259h-313l-178 -1259h-471z" />
<glyph unicode="N" d="M-98 -92l198 1417h1258l-199 -1417h-471l176 1259h-313l-178 -1259h-471z" />
<glyph unicode="O" d="M-98 -92l198 1417h1258l-199 -1417h-1257zM395 66h314l155 1101h-313z" />
<glyph unicode="P" horiz-adv-x="1431" d="M-121 -408l244 1733h1257l-198 -1417h-709l23 158h235l156 1101h-314l-221 -1575h-473z" />
<glyph unicode="Q" d="M-78 -92l201 1417h1257l-243 -1733h-471l221 1575h-316l-153 -1101h235l-22 -158h-709z" />
<glyph unicode="R" horiz-adv-x="1339" d="M-98 -92l198 1417h1258l-76 -551h-473l55 393h-313l-178 -1259h-471z" />
<glyph unicode="S" horiz-adv-x="1429" d="M-98 -92l75 551h474l-56 -393h316l65 471h-786l110 788h1258l-76 -551h-473l55 393h-315l-66 -471h787l-111 -788h-1257z" />
<glyph unicode="T" horiz-adv-x="1359" d="M-121 -92l244 1730h471l-45 -313h788l-22 -158h-787l-155 -1101h313l55 393h473l-77 -551h-1258z" />
<glyph unicode="U" d="M-98 -92l198 1417h471l-176 -1259h314l178 1259h471l-199 -1417h-1257z" />
<glyph unicode="V" horiz-adv-x="1404" d="M78 1169l22 156h471l-14 -100l68 -662l247 662l15 100h471l-21 -156l-477 -1261h-659z" />
<glyph unicode="W" horiz-adv-x="2220" d="M-98 -92l198 1417h471l-176 -1259h314l178 1259h471l-176 -1259h315l176 1259h473l-198 -1417h-2046z" />
<glyph unicode="X" horiz-adv-x="1415" d="M-98 -92l366 708l-168 709h506l78 -319l170 319h504l-367 -709l168 -708h-506l-78 319l-169 -319h-504z" />
<glyph unicode="Y" d="M-121 -408l23 158h786l221 1575h471l-243 -1733h-1258zM-78 -92l201 1417h471l-178 -1259h237l-22 -158h-709z" />
<glyph unicode="Z" horiz-adv-x="1380" d="M-98 -92l821 1257h-645l22 160h1258l-823 -1259h647l-23 -158h-1257z" />
<glyph unicode="[" horiz-adv-x="587" d="M-143 -408l286 2046h631l-22 -155h-236l-244 -1731h236l-23 -160h-628z" />
<glyph unicode="\" horiz-adv-x="1146" d="M0 1640l614 -2046h465l-614 2046h-465z" />
<glyph unicode="]" horiz-adv-x="802" d="M-143 -408h628l289 2046h-631l-20 -155h235l-243 -1731h-236z" />
<glyph unicode="^" horiz-adv-x="657" d="M29 1395h213q2 -2 67 63q14 -14 66 -63h217l-250 252h-63z" />
<glyph unicode="_" horiz-adv-x="1155" d="M-16 -96l32 235h1092l-33 -235h-1091z" />
<glyph unicode="`" horiz-adv-x="468" d="M29 1653l65 -248h316l-68 248h-313z" />
<glyph unicode="a" d="M-98 -92l153 1102h709l-23 -158h-235l-111 -786h314l155 1101h-786l22 158h1258l-199 -1417h-1257z" />
<glyph unicode="b" d="M-121 -92l244 1730h471l-221 -1572h315l154 1101h-236l23 158h708l-200 -1417h-1258z" />
<glyph unicode="c" horiz-adv-x="1425" d="M-98 -92l198 1417h1258l-76 -551h-473l55 393h-313l-156 -1101h314l55 393h473l-78 -551h-1257z" />
<glyph unicode="d" d="M-121 -92l199 1417h708l-22 -158h-236l-155 -1101h315l221 1572h471l-243 -1730h-1258z" />
<glyph unicode="e" horiz-adv-x="1427" d="M-98 -92l198 1417h1258l-154 -1102h-708l22 156h236l110 788h-313l-156 -1101h787l-23 -158h-1257z" />
<glyph unicode="f" horiz-adv-x="937" d="M37 -92l176 1259h-158l23 158h158l43 313h786l-21 -155h-315l-20 -158h155l-22 -158h-156l-178 -1259h-471z" />
<glyph unicode="g" d="M-121 -408l23 158h786l199 1417h-316l-153 -1101h235l-22 -158h-709l201 1417h1257l-243 -1733h-1258z" />
<glyph unicode="h" d="M-121 -92l244 1730h471l-43 -313h786l-200 -1417h-471l178 1259h-316l-178 -1259h-471z" />
<glyph unicode="i" horiz-adv-x="647" d="M-121 -92l199 1417h471l-199 -1417h-471zM88 1405l35 233h471l-33 -233h-473z" />
<glyph unicode="j" horiz-adv-x="645" d="M-143 -408l243 1733h471l-243 -1733h-471zM111 1405l32 233h473l-34 -233h-471z" />
<glyph unicode="k" horiz-adv-x="1417" d="M-121 -92l244 1730h471l-45 -313h788l-22 -158l-299 -2l121 -1257h-484l-125 1259l-176 -1259h-473z" />
<glyph unicode="l" horiz-adv-x="647" d="M-121 -92l244 1730h471l-244 -1730h-471z" />
<glyph unicode="m" horiz-adv-x="2220" d="M-98 -92l198 1417h2046l-198 -1417h-473l178 1259h-316l-176 -1259h-473l176 1259h-313l-178 -1259h-471z" />
<glyph unicode="n" d="M-98 -92l198 1417h1258l-199 -1417h-471l176 1259h-313l-178 -1259h-471z" />
<glyph unicode="o" d="M-98 -92l198 1417h1258l-199 -1417h-1257zM395 66h314l155 1101h-313z" />
<glyph unicode="p" horiz-adv-x="1431" d="M-121 -408l244 1733h1257l-198 -1417h-709l23 158h235l156 1101h-314l-221 -1575h-473z" />
<glyph unicode="q" d="M-78 -92l201 1417h1257l-243 -1733h-471l221 1575h-316l-153 -1101h235l-22 -158h-709z" />
<glyph unicode="r" horiz-adv-x="1339" d="M-98 -92l198 1417h1258l-76 -551h-473l55 393h-313l-178 -1259h-471z" />
<glyph unicode="s" horiz-adv-x="1429" d="M-98 -92l75 551h474l-56 -393h316l65 471h-786l110 788h1258l-76 -551h-473l55 393h-315l-66 -471h787l-111 -788h-1257z" />
<glyph unicode="t" horiz-adv-x="1359" d="M-121 -92l244 1730h471l-45 -313h788l-22 -158h-787l-155 -1101h313l55 393h473l-77 -551h-1258z" />
<glyph unicode="u" d="M-98 -92l198 1417h471l-176 -1259h314l178 1259h471l-199 -1417h-1257z" />
<glyph unicode="v" horiz-adv-x="1404" d="M78 1169l22 156h471l-14 -100l68 -662l247 662l15 100h471l-21 -156l-477 -1261h-659z" />
<glyph unicode="w" horiz-adv-x="2220" d="M-98 -92l198 1417h471l-176 -1259h314l178 1259h471l-176 -1259h315l176 1259h473l-198 -1417h-2046z" />
<glyph unicode="x" horiz-adv-x="1415" d="M-98 -92l366 708l-168 709h506l78 -319l170 319h504l-367 -709l168 -708h-506l-78 319l-169 -319h-504z" />
<glyph unicode="y" d="M-121 -408l23 158h786l221 1575h471l-243 -1733h-1258zM-78 -92l201 1417h471l-178 -1259h237l-22 -158h-709z" />
<glyph unicode="z" horiz-adv-x="1380" d="M-98 -92l821 1257h-645l22 160h1258l-823 -1259h647l-23 -158h-1257z" />
<glyph unicode="{" horiz-adv-x="587" d="M-143 -408l286 2046h631l-22 -155h-236l-244 -1731h236l-23 -160h-628z" />
<glyph unicode="|" horiz-adv-x="638" d="M0 -406v2046h465v-2046h-465z" />
<glyph unicode="}" horiz-adv-x="802" d="M-143 -408h628l289 2046h-631l-20 -155h235l-243 -1731h-236z" />
<glyph unicode="~" horiz-adv-x="776" d="M18 1427l17 127h123l12 95h448l-14 -95h123l-18 -127h-275l12 95h-139l-14 -95h-275z" />
<glyph unicode="&#xad;" horiz-adv-x="1032" d="M-16 539l32 235h867l-33 -235h-866z" />
<glyph unicode="&#xb4;" horiz-adv-x="473" d="M29 1405l65 248h316l-68 -248h-313z" />
<glyph unicode="&#xc0;" d="M-98 -92l153 1102h709l-23 -158h-235l-111 -786h314l155 1101h-786l22 158h1258l-199 -1417h-1257zM500 1653l65 -248h316l-68 248h-313z" />
<glyph unicode="&#xc1;" d="M-98 -92l153 1102h709l-23 -158h-235l-111 -786h314l155 1101h-786l22 158h1258l-199 -1417h-1257zM500 1405l65 248h316l-68 -248h-313z" />
<glyph unicode="&#xc2;" d="M-98 -92l153 1102h709l-23 -158h-235l-111 -786h314l155 1101h-786l22 158h1258l-199 -1417h-1257zM438 1395h213q2 -2 68 63q14 -14 65 -63h217l-249 252h-64z" />
<glyph unicode="&#xc3;" d="M-98 -92l153 1102h709l-23 -158h-235l-111 -786h314l155 1101h-786l22 158h1258l-199 -1417h-1257zM367 1427l16 127h123l12 95h449l-15 -95h123l-18 -127h-275l13 95h-140l-14 -95h-274z" />
<glyph unicode="&#xc4;" d="M-98 -92l153 1102h709l-23 -158h-235l-111 -786h314l155 1101h-786l22 158h1258l-199 -1417h-1257zM356 1405l33 233h316l-35 -233h-314zM766 1405l33 233h315l-35 -233h-313z" />
<glyph unicode="&#xc5;" d="M-121 -92l154 1102h708l-22 -158h-236l-110 -786h315l154 1101h-787l23 158h1259l-200 -1417h-1258zM561 1405l33 233h315l-35 -233h-313z" />
<glyph unicode="&#xc6;" horiz-adv-x="2215" d="M-98 -92l153 1102h709l-23 -158h-235l-111 -786h314l155 1101h-786l22 158h2046l-155 -1102h-707l21 156h235l111 788h-314l-155 -1101h786l-20 -158h-2046z" />
<glyph unicode="&#xc8;" horiz-adv-x="1427" d="M-98 -92l198 1417h1258l-154 -1102h-708l22 156h236l110 788h-313l-156 -1101h787l-23 -158h-1257zM500 1653l65 -248h316l-68 248h-313z" />
<glyph unicode="&#xc9;" horiz-adv-x="1427" d="M-98 -92l198 1417h1258l-154 -1102h-708l22 156h236l110 788h-313l-156 -1101h787l-23 -158h-1257zM500 1405l65 248h316l-68 -248h-313z" />
<glyph unicode="&#xca;" horiz-adv-x="1427" d="M-98 -92l198 1417h1258l-154 -1102h-708l22 156h236l110 788h-313l-156 -1101h787l-23 -158h-1257zM438 1395h213q2 -2 68 63q14 -14 65 -63h217l-249 252h-64z" />
<glyph unicode="&#xcb;" horiz-adv-x="1427" d="M-98 -92l198 1417h1258l-154 -1102h-708l22 156h236l110 788h-313l-156 -1101h787l-23 -158h-1257zM356 1405l33 233h316l-35 -233h-314zM766 1405l33 233h315l-35 -233h-313z" />
<glyph unicode="&#xcc;" horiz-adv-x="647" d="M-121 -92l199 1417h471l-199 -1417h-471zM111 1653l65 -248h316l-68 248h-313z" />
<glyph unicode="&#xcd;" horiz-adv-x="647" d="M-121 -92l199 1417h471l-199 -1417h-471zM172 1405l66 248h315l-68 -248h-313z" />
<glyph unicode="&#xce;" horiz-adv-x="647" d="M-121 -92l199 1417h471l-199 -1417h-471zM29 1395h213q2 -2 67 63q14 -14 66 -63h217l-250 252h-63z" />
<glyph unicode="&#xcf;" horiz-adv-x="647" d="M-121 -92l199 1417h471l-199 -1417h-471zM-33 1405l33 233h315l-34 -233h-314zM377 1405l33 233h315l-35 -233h-313z" />
<glyph unicode="&#xd1;" d="M-98 -92l198 1417h1258l-199 -1417h-471l176 1259h-313l-178 -1259h-471zM367 1427l16 127h123l12 95h449l-15 -95h123l-18 -127h-275l13 95h-140l-14 -95h-274z" />
<glyph unicode="&#xd2;" d="M-98 -92l198 1417h1258l-199 -1417h-1257zM395 66h314l155 1101h-313zM500 1653l65 -248h316l-68 248h-313z" />
<glyph unicode="&#xd3;" d="M-98 -92l198 1417h1258l-199 -1417h-1257zM395 66h314l155 1101h-313zM500 1405l65 248h316l-68 -248h-313z" />
<glyph unicode="&#xd4;" d="M-98 -92l198 1417h1258l-199 -1417h-1257zM395 66h314l155 1101h-313zM438 1395h213q2 -2 68 63q14 -14 65 -63h217l-249 252h-64z" />
<glyph unicode="&#xd5;" d="M-98 -92l198 1417h1258l-199 -1417h-1257zM367 1427l16 127h123l12 95h449l-15 -95h123l-18 -127h-275l13 95h-140l-14 -95h-274zM395 66h314l155 1101h-313z" />
<glyph unicode="&#xd6;" d="M-98 -92l198 1417h1258l-199 -1417h-1257zM356 1405l33 233h316l-35 -233h-314zM395 66h314l155 1101h-313zM766 1405l33 233h315l-35 -233h-313z" />
<glyph unicode="&#xd8;" d="M-98 -92l198 1417h1258l-199 -1417h-1257zM430 309l369 858h-248zM467 66h242l118 841z" />
<glyph unicode="&#xd9;" d="M-98 -92l198 1417h471l-176 -1259h314l178 1259h471l-199 -1417h-1257zM500 1653l65 -248h316l-68 248h-313z" />
<glyph unicode="&#xda;" d="M-98 -92l198 1417h471l-176 -1259h314l178 1259h471l-199 -1417h-1257zM500 1405l65 248h316l-68 -248h-313z" />
<glyph unicode="&#xdb;" d="M-98 -92l198 1417h471l-176 -1259h314l178 1259h471l-199 -1417h-1257zM438 1395h213q2 -2 68 63q14 -14 65 -63h217l-249 252h-64z" />
<glyph unicode="&#xdc;" d="M-98 -92l198 1417h471l-176 -1259h314l178 1259h471l-199 -1417h-1257zM356 1405l33 233h316l-35 -233h-314zM766 1405l33 233h315l-35 -233h-313z" />
<glyph unicode="&#xdd;" d="M-121 -408l23 158h786l221 1575h471l-243 -1733h-1258zM-78 -92l201 1417h471l-178 -1259h237l-22 -158h-709zM602 1405l66 248h315l-68 -248h-313z" />
<glyph unicode="&#xe0;" d="M-98 -92l153 1102h709l-23 -158h-235l-111 -786h314l155 1101h-786l22 158h1258l-199 -1417h-1257zM500 1653l65 -248h316l-68 248h-313z" />
<glyph unicode="&#xe1;" d="M-98 -92l153 1102h709l-23 -158h-235l-111 -786h314l155 1101h-786l22 158h1258l-199 -1417h-1257zM500 1405l65 248h316l-68 -248h-313z" />
<glyph unicode="&#xe2;" d="M-98 -92l153 1102h709l-23 -158h-235l-111 -786h314l155 1101h-786l22 158h1258l-199 -1417h-1257zM438 1395h213q2 -2 68 63q14 -14 65 -63h217l-249 252h-64z" />
<glyph unicode="&#xe3;" d="M-98 -92l153 1102h709l-23 -158h-235l-111 -786h314l155 1101h-786l22 158h1258l-199 -1417h-1257zM367 1427l16 127h123l12 95h449l-15 -95h123l-18 -127h-275l13 95h-140l-14 -95h-274z" />
<glyph unicode="&#xe4;" d="M-98 -92l153 1102h709l-23 -158h-235l-111 -786h314l155 1101h-786l22 158h1258l-199 -1417h-1257zM356 1405l33 233h316l-35 -233h-314zM766 1405l33 233h315l-35 -233h-313z" />
<glyph unicode="&#xe5;" d="M-121 -92l154 1102h708l-22 -158h-236l-110 -786h315l154 1101h-787l23 158h1259l-200 -1417h-1258zM561 1405l33 233h315l-35 -233h-313z" />
<glyph unicode="&#xe6;" horiz-adv-x="2215" d="M-98 -92l153 1102h709l-23 -158h-235l-111 -786h314l155 1101h-786l22 158h2046l-155 -1102h-707l21 156h235l111 788h-314l-155 -1101h786l-20 -158h-2046z" />
<glyph unicode="&#xe8;" horiz-adv-x="1427" d="M-98 -92l198 1417h1258l-154 -1102h-708l22 156h236l110 788h-313l-156 -1101h787l-23 -158h-1257zM500 1653l65 -248h316l-68 248h-313z" />
<glyph unicode="&#xe9;" horiz-adv-x="1427" d="M-98 -92l198 1417h1258l-154 -1102h-708l22 156h236l110 788h-313l-156 -1101h787l-23 -158h-1257zM500 1405l65 248h316l-68 -248h-313z" />
<glyph unicode="&#xea;" horiz-adv-x="1427" d="M-98 -92l198 1417h1258l-154 -1102h-708l22 156h236l110 788h-313l-156 -1101h787l-23 -158h-1257zM438 1395h213q2 -2 68 63q14 -14 65 -63h217l-249 252h-64z" />
<glyph unicode="&#xeb;" horiz-adv-x="1427" d="M-98 -92l198 1417h1258l-154 -1102h-708l22 156h236l110 788h-313l-156 -1101h787l-23 -158h-1257zM356 1405l33 233h316l-35 -233h-314zM766 1405l33 233h315l-35 -233h-313z" />
<glyph unicode="&#xec;" horiz-adv-x="647" d="M-121 -92l199 1417h471l-199 -1417h-471zM111 1653l65 -248h316l-68 248h-313z" />
<glyph unicode="&#xed;" horiz-adv-x="647" d="M-121 -92l199 1417h471l-199 -1417h-471zM172 1405l66 248h315l-68 -248h-313z" />
<glyph unicode="&#xee;" horiz-adv-x="647" d="M-121 -92l199 1417h471l-199 -1417h-471zM29 1395h213q2 -2 67 63q14 -14 66 -63h217l-250 252h-63z" />
<glyph unicode="&#xef;" horiz-adv-x="647" d="M-121 -92l199 1417h471l-199 -1417h-471zM-33 1405l33 233h315l-34 -233h-314zM377 1405l33 233h315l-35 -233h-313z" />
<glyph unicode="&#xf1;" d="M-98 -92l198 1417h1258l-199 -1417h-471l176 1259h-313l-178 -1259h-471zM367 1427l16 127h123l12 95h449l-15 -95h123l-18 -127h-275l13 95h-140l-14 -95h-274z" />
<glyph unicode="&#xf2;" d="M-98 -92l198 1417h1258l-199 -1417h-1257zM395 66h314l155 1101h-313zM500 1653l65 -248h316l-68 248h-313z" />
<glyph unicode="&#xf3;" d="M-98 -92l198 1417h1258l-199 -1417h-1257zM395 66h314l155 1101h-313zM500 1405l65 248h316l-68 -248h-313z" />
<glyph unicode="&#xf4;" d="M-98 -92l198 1417h1258l-199 -1417h-1257zM395 66h314l155 1101h-313zM438 1395h213q2 -2 68 63q14 -14 65 -63h217l-249 252h-64z" />
<glyph unicode="&#xf5;" d="M-98 -92l198 1417h1258l-199 -1417h-1257zM367 1427l16 127h123l12 95h449l-15 -95h123l-18 -127h-275l13 95h-140l-14 -95h-274zM395 66h314l155 1101h-313z" />
<glyph unicode="&#xf6;" d="M-98 -92l198 1417h1258l-199 -1417h-1257zM356 1405l33 233h316l-35 -233h-314zM395 66h314l155 1101h-313zM766 1405l33 233h315l-35 -233h-313z" />
<glyph unicode="&#xf8;" d="M-98 -92l198 1417h1258l-199 -1417h-1257zM430 309l369 858h-248zM467 66h242l118 841z" />
<glyph unicode="&#xf9;" d="M-98 -92l198 1417h471l-176 -1259h314l178 1259h471l-199 -1417h-1257zM500 1653l65 -248h316l-68 248h-313z" />
<glyph unicode="&#xfa;" d="M-98 -92l198 1417h471l-176 -1259h314l178 1259h471l-199 -1417h-1257zM500 1405l65 248h316l-68 -248h-313z" />
<glyph unicode="&#xfb;" d="M-98 -92l198 1417h471l-176 -1259h314l178 1259h471l-199 -1417h-1257zM438 1395h213q2 -2 68 63q14 -14 65 -63h217l-249 252h-64z" />
<glyph unicode="&#xfc;" d="M-98 -92l198 1417h471l-176 -1259h314l178 1259h471l-199 -1417h-1257zM356 1405l33 233h316l-35 -233h-314zM766 1405l33 233h315l-35 -233h-313z" />
<glyph unicode="&#xfd;" d="M-121 -408l23 158h786l221 1575h471l-243 -1733h-1258zM-78 -92l201 1417h471l-178 -1259h237l-22 -158h-709zM602 1405l66 248h315l-68 -248h-313z" />
<glyph unicode="&#xff;" d="M-121 -408l23 158h786l221 1575h471l-243 -1733h-1258zM-78 -92l201 1417h471l-178 -1259h237l-22 -158h-709zM356 1405l33 233h316l-35 -233h-314zM766 1405l33 233h315l-35 -233h-313z" />
<glyph unicode="&#x2000;" horiz-adv-x="826" />
<glyph unicode="&#x2001;" horiz-adv-x="1653" />
<glyph unicode="&#x2002;" horiz-adv-x="826" />
<glyph unicode="&#x2003;" horiz-adv-x="1653" />
<glyph unicode="&#x2004;" horiz-adv-x="551" />
<glyph unicode="&#x2005;" horiz-adv-x="413" />
<glyph unicode="&#x2006;" horiz-adv-x="275" />
<glyph unicode="&#x2007;" horiz-adv-x="275" />
<glyph unicode="&#x2008;" horiz-adv-x="206" />
<glyph unicode="&#x2009;" horiz-adv-x="330" />
<glyph unicode="&#x200a;" horiz-adv-x="91" />
<glyph unicode="&#x2010;" horiz-adv-x="1032" d="M-16 539l32 235h867l-33 -235h-866z" />
<glyph unicode="&#x2011;" horiz-adv-x="1032" d="M-16 539l32 235h867l-33 -235h-866z" />
<glyph unicode="&#x2012;" horiz-adv-x="1032" d="M-16 539l32 235h867l-33 -235h-866z" />
<glyph unicode="&#x2013;" horiz-adv-x="1157" d="M-16 539l36 235h988l-38 -235h-986z" />
<glyph unicode="&#x2014;" horiz-adv-x="2181" d="M-16 539l73 235h1975l-75 -235h-1973z" />
<glyph unicode="&#x201d;" horiz-adv-x="952" d="M-33 852l66 473h315l-57 -412zM438 852l66 473h315l-57 -412z" />
<glyph unicode="&#x201e;" horiz-adv-x="952" d="M-33 852l66 473h315l-57 -412zM438 852l66 473h315l-57 -412z" />
<glyph unicode="&#x202f;" horiz-adv-x="330" />
<glyph unicode="&#x205f;" horiz-adv-x="413" />
<glyph unicode="&#x25fc;" horiz-adv-x="1320" d="M0 0v1321h1321v-1321h-1321z" />
</font>
</defs>
</svg>
