<?xml version="1.0" encoding="UTF-8" standalone="no"?>
<!DOCTYPE svg PUBLIC "-//W3C//DTD SVG 1.1//EN" "http://www.w3.org/Graphics/SVG/1.1/DTD/svg11.dtd">
<svg width="100%" height="100%" viewBox="0 0 395 65" version="1.1" xmlns="http://www.w3.org/2000/svg" xmlns:xlink="http://www.w3.org/1999/xlink" xml:space="preserve" xmlns:serif="http://www.serif.com/" style="fill-rule:evenodd;clip-rule:evenodd;stroke-linecap:round;stroke-linejoin:round;stroke-miterlimit:1;">
    <g transform="matrix(1,0,0,1,-33,-32)">
        <g transform="matrix(2.01511,0,0,1.8,-60.4534,-63)">
            <g transform="matrix(0.344192,0,0,0.385325,-249.487,-223.087)">
                <path d="M864.588,720.462L925,804.424L989,720.462M963,804.424L1026,720.462L1084,804.424M1086,720.462C1086,720.462 1078.69,805.019 1147,804.424C1215.31,803.828 1204,720.462 1204,720.462M1231,720.462L1232,804.424L1327,804.427M1297,720.462L1424,720.462M1358,720.462L1358,804.424" style="fill:none;stroke:white;stroke-width:7.8px;"/>
            </g>
        </g>
    </g>
</svg>
